<mxfile host="app.diagrams.net" modified="2023-11-14T23:15:23.870Z" agent="Mozilla/5.0 (Windows NT 10.0; Win64; x64) AppleWebKit/537.36 (KHTML, like Gecko) Chrome/119.0.0.0 Safari/537.36 Edg/119.0.0.0" etag="wgk9B8DPU3SCCFMVduf-" version="22.1.1" type="github">
  <diagram name="Page-1" id="TUiZtrmQtdgppZ5R9wEh">
    <mxGraphModel dx="1282" dy="1731" grid="1" gridSize="10" guides="1" tooltips="1" connect="1" arrows="1" fold="1" page="1" pageScale="1" pageWidth="850" pageHeight="1100" math="0" shadow="0">
      <root>
        <mxCell id="0" />
        <mxCell id="1" parent="0" />
        <mxCell id="06RwZjaRszY16_3Q2Yc0-5" value="Person" style="swimlane;childLayout=stackLayout;horizontal=1;startSize=50;horizontalStack=0;rounded=1;fontSize=14;fontStyle=0;strokeWidth=2;resizeParent=0;resizeLast=1;shadow=0;dashed=0;align=center;arcSize=4;whiteSpace=wrap;html=1;" parent="1" vertex="1">
          <mxGeometry x="40" y="240" width="160" height="140" as="geometry" />
        </mxCell>
        <mxCell id="QdFJosM6-cuGJGQsEmsZ-1" value="firstName&lt;br&gt;lastName&lt;br&gt;dob&lt;br&gt;age&lt;br&gt;gender&lt;br&gt;phoneNo&lt;br&gt;" style="text;html=1;align=center;verticalAlign=middle;resizable=0;points=[];autosize=1;strokeColor=none;fillColor=none;" vertex="1" parent="06RwZjaRszY16_3Q2Yc0-5">
          <mxGeometry y="50" width="160" height="90" as="geometry" />
        </mxCell>
        <mxCell id="06RwZjaRszY16_3Q2Yc0-7" value="User" style="swimlane;childLayout=stackLayout;horizontal=1;startSize=50;horizontalStack=0;rounded=1;fontSize=14;fontStyle=0;strokeWidth=2;resizeParent=0;resizeLast=1;shadow=0;dashed=0;align=center;arcSize=4;whiteSpace=wrap;html=1;" parent="1" vertex="1">
          <mxGeometry x="310" y="240" width="160" height="120" as="geometry" />
        </mxCell>
        <mxCell id="QdFJosM6-cuGJGQsEmsZ-2" value="userID&lt;br&gt;userName&lt;br&gt;password&lt;br&gt;email" style="text;html=1;align=center;verticalAlign=middle;resizable=0;points=[];autosize=1;strokeColor=none;fillColor=none;" vertex="1" parent="06RwZjaRszY16_3Q2Yc0-7">
          <mxGeometry y="50" width="160" height="70" as="geometry" />
        </mxCell>
        <mxCell id="06RwZjaRszY16_3Q2Yc0-11" value="" style="edgeStyle=entityRelationEdgeStyle;fontSize=12;html=1;endArrow=ERmandOne;startArrow=ERmandOne;rounded=0;exitX=1;exitY=0.75;exitDx=0;exitDy=0;" parent="1" source="06RwZjaRszY16_3Q2Yc0-5" target="06RwZjaRszY16_3Q2Yc0-7" edge="1">
          <mxGeometry width="100" height="100" relative="1" as="geometry">
            <mxPoint x="200" y="325" as="sourcePoint" />
            <mxPoint x="310" y="325" as="targetPoint" />
          </mxGeometry>
        </mxCell>
        <mxCell id="QdFJosM6-cuGJGQsEmsZ-11" value="1" style="edgeLabel;html=1;align=center;verticalAlign=middle;resizable=0;points=[];" vertex="1" connectable="0" parent="06RwZjaRszY16_3Q2Yc0-11">
          <mxGeometry x="-0.758" relative="1" as="geometry">
            <mxPoint as="offset" />
          </mxGeometry>
        </mxCell>
        <mxCell id="QdFJosM6-cuGJGQsEmsZ-12" value="1" style="edgeLabel;html=1;align=center;verticalAlign=middle;resizable=0;points=[];" vertex="1" connectable="0" parent="06RwZjaRszY16_3Q2Yc0-11">
          <mxGeometry x="0.6983" y="-3" relative="1" as="geometry">
            <mxPoint as="offset" />
          </mxGeometry>
        </mxCell>
        <mxCell id="06RwZjaRszY16_3Q2Yc0-12" value="UserDirectory" style="swimlane;childLayout=stackLayout;horizontal=1;startSize=50;horizontalStack=0;rounded=1;fontSize=14;fontStyle=0;strokeWidth=2;resizeParent=0;resizeLast=1;shadow=0;dashed=0;align=center;arcSize=4;whiteSpace=wrap;html=1;" parent="1" vertex="1">
          <mxGeometry x="320" width="160" height="120" as="geometry" />
        </mxCell>
        <mxCell id="06RwZjaRszY16_3Q2Yc0-13" value="PersonDirectory" style="swimlane;childLayout=stackLayout;horizontal=1;startSize=50;horizontalStack=0;rounded=1;fontSize=14;fontStyle=0;strokeWidth=2;resizeParent=0;resizeLast=1;shadow=0;dashed=0;align=center;arcSize=4;whiteSpace=wrap;html=1;" parent="1" vertex="1">
          <mxGeometry x="40" width="160" height="120" as="geometry" />
        </mxCell>
        <mxCell id="06RwZjaRszY16_3Q2Yc0-18" value="" style="edgeStyle=orthogonalEdgeStyle;fontSize=12;html=1;endArrow=ERmany;rounded=0;exitX=0.5;exitY=1;exitDx=0;exitDy=0;" parent="1" source="06RwZjaRszY16_3Q2Yc0-13" target="06RwZjaRszY16_3Q2Yc0-5" edge="1">
          <mxGeometry width="100" height="100" relative="1" as="geometry">
            <mxPoint x="130" y="130" as="sourcePoint" />
            <mxPoint x="120" y="240" as="targetPoint" />
            <Array as="points">
              <mxPoint x="120" y="160" />
              <mxPoint x="120" y="160" />
            </Array>
          </mxGeometry>
        </mxCell>
        <mxCell id="QdFJosM6-cuGJGQsEmsZ-3" value="1" style="edgeLabel;html=1;align=center;verticalAlign=middle;resizable=0;points=[];" vertex="1" connectable="0" parent="06RwZjaRszY16_3Q2Yc0-18">
          <mxGeometry x="-0.7167" relative="1" as="geometry">
            <mxPoint as="offset" />
          </mxGeometry>
        </mxCell>
        <mxCell id="QdFJosM6-cuGJGQsEmsZ-4" value="N" style="edgeLabel;html=1;align=center;verticalAlign=middle;resizable=0;points=[];" vertex="1" connectable="0" parent="06RwZjaRszY16_3Q2Yc0-18">
          <mxGeometry x="0.6667" relative="1" as="geometry">
            <mxPoint as="offset" />
          </mxGeometry>
        </mxCell>
        <mxCell id="06RwZjaRszY16_3Q2Yc0-19" value="" style="edgeStyle=orthogonalEdgeStyle;fontSize=12;html=1;endArrow=ERmany;rounded=0;exitX=0.5;exitY=1;exitDx=0;exitDy=0;" parent="1" source="06RwZjaRszY16_3Q2Yc0-12" target="06RwZjaRszY16_3Q2Yc0-7" edge="1">
          <mxGeometry width="100" height="100" relative="1" as="geometry">
            <mxPoint x="395" y="130" as="sourcePoint" />
            <mxPoint x="385" y="240" as="targetPoint" />
            <Array as="points">
              <mxPoint x="400" y="186" />
              <mxPoint x="385" y="186" />
            </Array>
          </mxGeometry>
        </mxCell>
        <mxCell id="QdFJosM6-cuGJGQsEmsZ-5" value="N" style="edgeLabel;html=1;align=center;verticalAlign=middle;resizable=0;points=[];" vertex="1" connectable="0" parent="06RwZjaRszY16_3Q2Yc0-19">
          <mxGeometry x="0.7481" y="-1" relative="1" as="geometry">
            <mxPoint as="offset" />
          </mxGeometry>
        </mxCell>
        <mxCell id="QdFJosM6-cuGJGQsEmsZ-6" value="1" style="edgeLabel;html=1;align=center;verticalAlign=middle;resizable=0;points=[];" vertex="1" connectable="0" parent="06RwZjaRszY16_3Q2Yc0-19">
          <mxGeometry x="-0.8074" relative="1" as="geometry">
            <mxPoint as="offset" />
          </mxGeometry>
        </mxCell>
        <mxCell id="06RwZjaRszY16_3Q2Yc0-20" value="Portfolio" style="swimlane;childLayout=stackLayout;horizontal=1;startSize=50;horizontalStack=0;rounded=1;fontSize=14;fontStyle=0;strokeWidth=2;resizeParent=0;resizeLast=1;shadow=0;dashed=0;align=center;arcSize=4;whiteSpace=wrap;html=1;" parent="1" vertex="1">
          <mxGeometry x="600" y="240" width="160" height="120" as="geometry" />
        </mxCell>
        <mxCell id="06RwZjaRszY16_3Q2Yc0-23" value="Share" style="swimlane;childLayout=stackLayout;horizontal=1;startSize=50;horizontalStack=0;rounded=1;fontSize=14;fontStyle=0;strokeWidth=2;resizeParent=0;resizeLast=1;shadow=0;dashed=0;align=center;arcSize=4;whiteSpace=wrap;html=1;" parent="1" vertex="1">
          <mxGeometry x="1570" y="240" width="160" height="120" as="geometry" />
        </mxCell>
        <mxCell id="06RwZjaRszY16_3Q2Yc0-25" value="Stonks Platform" style="swimlane;childLayout=stackLayout;horizontal=1;startSize=50;horizontalStack=0;rounded=1;fontSize=14;fontStyle=0;strokeWidth=2;resizeParent=0;resizeLast=1;shadow=0;dashed=0;align=center;arcSize=4;whiteSpace=wrap;html=1;" parent="1" vertex="1">
          <mxGeometry x="600" y="-200" width="160" height="120" as="geometry" />
        </mxCell>
        <mxCell id="06RwZjaRszY16_3Q2Yc0-26" value="" style="edgeStyle=orthogonalEdgeStyle;fontSize=12;html=1;endArrow=ERmandOne;startArrow=ERmandOne;rounded=0;entryX=0;entryY=0.25;entryDx=0;entryDy=0;exitX=0.5;exitY=0;exitDx=0;exitDy=0;" parent="1" source="06RwZjaRszY16_3Q2Yc0-13" target="06RwZjaRszY16_3Q2Yc0-25" edge="1">
          <mxGeometry width="100" height="100" relative="1" as="geometry">
            <mxPoint x="250" y="-50" as="sourcePoint" />
            <mxPoint x="350" y="-150" as="targetPoint" />
          </mxGeometry>
        </mxCell>
        <mxCell id="QdFJosM6-cuGJGQsEmsZ-7" value="1" style="edgeLabel;html=1;align=center;verticalAlign=middle;resizable=0;points=[];" vertex="1" connectable="0" parent="06RwZjaRszY16_3Q2Yc0-26">
          <mxGeometry x="-0.9138" y="-2" relative="1" as="geometry">
            <mxPoint as="offset" />
          </mxGeometry>
        </mxCell>
        <mxCell id="QdFJosM6-cuGJGQsEmsZ-9" value="1" style="edgeLabel;html=1;align=center;verticalAlign=middle;resizable=0;points=[];" vertex="1" connectable="0" parent="06RwZjaRszY16_3Q2Yc0-26">
          <mxGeometry x="0.8597" relative="1" as="geometry">
            <mxPoint as="offset" />
          </mxGeometry>
        </mxCell>
        <mxCell id="06RwZjaRszY16_3Q2Yc0-27" value="" style="edgeStyle=orthogonalEdgeStyle;fontSize=12;html=1;endArrow=ERmandOne;startArrow=ERmandOne;rounded=0;entryX=0;entryY=0.5;entryDx=0;entryDy=0;exitX=0.432;exitY=-0.012;exitDx=0;exitDy=0;exitPerimeter=0;" parent="1" source="06RwZjaRszY16_3Q2Yc0-12" target="06RwZjaRszY16_3Q2Yc0-25" edge="1">
          <mxGeometry width="100" height="100" relative="1" as="geometry">
            <mxPoint x="150" y="20" as="sourcePoint" />
            <mxPoint x="610" y="-160" as="targetPoint" />
            <Array as="points">
              <mxPoint x="389" y="-140" />
            </Array>
          </mxGeometry>
        </mxCell>
        <mxCell id="QdFJosM6-cuGJGQsEmsZ-8" value="1" style="edgeLabel;html=1;align=center;verticalAlign=middle;resizable=0;points=[];" vertex="1" connectable="0" parent="06RwZjaRszY16_3Q2Yc0-27">
          <mxGeometry x="-0.8411" y="1" relative="1" as="geometry">
            <mxPoint as="offset" />
          </mxGeometry>
        </mxCell>
        <mxCell id="QdFJosM6-cuGJGQsEmsZ-10" value="1" style="edgeLabel;html=1;align=center;verticalAlign=middle;resizable=0;points=[];" vertex="1" connectable="0" parent="06RwZjaRszY16_3Q2Yc0-27">
          <mxGeometry x="0.7447" y="-1" relative="1" as="geometry">
            <mxPoint as="offset" />
          </mxGeometry>
        </mxCell>
        <mxCell id="QdFJosM6-cuGJGQsEmsZ-16" style="edgeStyle=orthogonalEdgeStyle;rounded=0;orthogonalLoop=1;jettySize=auto;html=1;entryX=1;entryY=0.5;entryDx=0;entryDy=0;" edge="1" parent="1" source="06RwZjaRszY16_3Q2Yc0-28" target="QdFJosM6-cuGJGQsEmsZ-15">
          <mxGeometry relative="1" as="geometry" />
        </mxCell>
        <mxCell id="QdFJosM6-cuGJGQsEmsZ-17" value="1" style="edgeLabel;html=1;align=center;verticalAlign=middle;resizable=0;points=[];" vertex="1" connectable="0" parent="QdFJosM6-cuGJGQsEmsZ-16">
          <mxGeometry x="0.7436" relative="1" as="geometry">
            <mxPoint as="offset" />
          </mxGeometry>
        </mxCell>
        <mxCell id="QdFJosM6-cuGJGQsEmsZ-18" value="N" style="edgeLabel;html=1;align=center;verticalAlign=middle;resizable=0;points=[];" vertex="1" connectable="0" parent="QdFJosM6-cuGJGQsEmsZ-16">
          <mxGeometry x="-0.7655" y="2" relative="1" as="geometry">
            <mxPoint as="offset" />
          </mxGeometry>
        </mxCell>
        <mxCell id="06RwZjaRszY16_3Q2Yc0-28" value="Order" style="swimlane;childLayout=stackLayout;horizontal=1;startSize=50;horizontalStack=0;rounded=1;fontSize=14;fontStyle=0;strokeWidth=2;resizeParent=0;resizeLast=1;shadow=0;dashed=0;align=center;arcSize=4;whiteSpace=wrap;html=1;" parent="1" vertex="1">
          <mxGeometry x="1275" y="240" width="160" height="120" as="geometry" />
        </mxCell>
        <mxCell id="06RwZjaRszY16_3Q2Yc0-31" value="" style="edgeStyle=entityRelationEdgeStyle;fontSize=12;html=1;endArrow=ERmandOne;startArrow=ERmandOne;rounded=0;entryX=0;entryY=0.5;entryDx=0;entryDy=0;" parent="1" source="06RwZjaRszY16_3Q2Yc0-7" target="06RwZjaRszY16_3Q2Yc0-20" edge="1">
          <mxGeometry width="100" height="100" relative="1" as="geometry">
            <mxPoint x="700" y="300" as="sourcePoint" />
            <mxPoint x="800" y="200" as="targetPoint" />
          </mxGeometry>
        </mxCell>
        <mxCell id="QdFJosM6-cuGJGQsEmsZ-13" value="1" style="edgeLabel;html=1;align=center;verticalAlign=middle;resizable=0;points=[];" vertex="1" connectable="0" parent="06RwZjaRszY16_3Q2Yc0-31">
          <mxGeometry x="-0.7415" y="1" relative="1" as="geometry">
            <mxPoint as="offset" />
          </mxGeometry>
        </mxCell>
        <mxCell id="QdFJosM6-cuGJGQsEmsZ-14" value="1" style="edgeLabel;html=1;align=center;verticalAlign=middle;resizable=0;points=[];" vertex="1" connectable="0" parent="06RwZjaRszY16_3Q2Yc0-31">
          <mxGeometry x="0.5815" relative="1" as="geometry">
            <mxPoint as="offset" />
          </mxGeometry>
        </mxCell>
        <mxCell id="06RwZjaRszY16_3Q2Yc0-32" value="" style="edgeStyle=entityRelationEdgeStyle;fontSize=12;html=1;endArrow=ERmany;rounded=0;entryX=0;entryY=0.5;entryDx=0;entryDy=0;exitX=1;exitY=0.5;exitDx=0;exitDy=0;" parent="1" source="06RwZjaRszY16_3Q2Yc0-28" target="06RwZjaRszY16_3Q2Yc0-23" edge="1">
          <mxGeometry width="100" height="100" relative="1" as="geometry">
            <mxPoint x="1430" y="440" as="sourcePoint" />
            <mxPoint x="1550" y="430" as="targetPoint" />
          </mxGeometry>
        </mxCell>
        <mxCell id="QdFJosM6-cuGJGQsEmsZ-22" value="N" style="edgeLabel;html=1;align=center;verticalAlign=middle;resizable=0;points=[];" vertex="1" connectable="0" parent="06RwZjaRszY16_3Q2Yc0-32">
          <mxGeometry x="0.5141" relative="1" as="geometry">
            <mxPoint as="offset" />
          </mxGeometry>
        </mxCell>
        <mxCell id="QdFJosM6-cuGJGQsEmsZ-23" value="1" style="edgeLabel;html=1;align=center;verticalAlign=middle;resizable=0;points=[];" vertex="1" connectable="0" parent="06RwZjaRszY16_3Q2Yc0-32">
          <mxGeometry x="-0.7541" y="-2" relative="1" as="geometry">
            <mxPoint as="offset" />
          </mxGeometry>
        </mxCell>
        <mxCell id="06RwZjaRszY16_3Q2Yc0-33" value="TranscationList" style="swimlane;childLayout=stackLayout;horizontal=1;startSize=50;horizontalStack=0;rounded=1;fontSize=14;fontStyle=0;strokeWidth=2;resizeParent=0;resizeLast=1;shadow=0;dashed=0;align=center;arcSize=4;whiteSpace=wrap;html=1;" parent="1" vertex="1">
          <mxGeometry x="590" y="600" width="160" height="120" as="geometry" />
        </mxCell>
        <mxCell id="06RwZjaRszY16_3Q2Yc0-34" value="" style="edgeStyle=orthogonalEdgeStyle;fontSize=12;html=1;endArrow=ERmandOne;startArrow=ERmandOne;rounded=0;exitX=0.5;exitY=1;exitDx=0;exitDy=0;entryX=0.5;entryY=0;entryDx=0;entryDy=0;" parent="1" source="06RwZjaRszY16_3Q2Yc0-20" target="06RwZjaRszY16_3Q2Yc0-33" edge="1">
          <mxGeometry width="100" height="100" relative="1" as="geometry">
            <mxPoint x="700" y="400" as="sourcePoint" />
            <mxPoint x="800" y="300" as="targetPoint" />
          </mxGeometry>
        </mxCell>
        <mxCell id="06RwZjaRszY16_3Q2Yc0-35" value="Transcation" style="swimlane;childLayout=stackLayout;horizontal=1;startSize=50;horizontalStack=0;rounded=1;fontSize=14;fontStyle=0;strokeWidth=2;resizeParent=0;resizeLast=1;shadow=0;dashed=0;align=center;arcSize=4;whiteSpace=wrap;html=1;" parent="1" vertex="1">
          <mxGeometry x="1290" y="600" width="160" height="120" as="geometry" />
        </mxCell>
        <mxCell id="06RwZjaRszY16_3Q2Yc0-36" value="" style="edgeStyle=orthogonalEdgeStyle;fontSize=12;html=1;endArrow=ERmany;rounded=0;entryX=0;entryY=0.5;entryDx=0;entryDy=0;exitX=1;exitY=0.5;exitDx=0;exitDy=0;" parent="1" source="06RwZjaRszY16_3Q2Yc0-33" target="06RwZjaRszY16_3Q2Yc0-35" edge="1">
          <mxGeometry width="100" height="100" relative="1" as="geometry">
            <mxPoint x="730" y="780" as="sourcePoint" />
            <mxPoint x="850" y="770" as="targetPoint" />
          </mxGeometry>
        </mxCell>
        <mxCell id="06RwZjaRszY16_3Q2Yc0-37" value="" style="edgeStyle=orthogonalEdgeStyle;fontSize=12;html=1;endArrow=ERmandOne;startArrow=ERmandOne;rounded=0;entryX=0.5;entryY=1;entryDx=0;entryDy=0;exitX=0.5;exitY=0;exitDx=0;exitDy=0;" parent="1" source="06RwZjaRszY16_3Q2Yc0-35" target="06RwZjaRszY16_3Q2Yc0-28" edge="1">
          <mxGeometry width="100" height="100" relative="1" as="geometry">
            <mxPoint x="1280" y="470" as="sourcePoint" />
            <mxPoint x="1410" y="470" as="targetPoint" />
          </mxGeometry>
        </mxCell>
        <mxCell id="QdFJosM6-cuGJGQsEmsZ-24" value="1" style="edgeLabel;html=1;align=center;verticalAlign=middle;resizable=0;points=[];" vertex="1" connectable="0" parent="06RwZjaRszY16_3Q2Yc0-37">
          <mxGeometry x="0.738" y="-2" relative="1" as="geometry">
            <mxPoint as="offset" />
          </mxGeometry>
        </mxCell>
        <mxCell id="QdFJosM6-cuGJGQsEmsZ-25" value="1" style="edgeLabel;html=1;align=center;verticalAlign=middle;resizable=0;points=[];" vertex="1" connectable="0" parent="06RwZjaRszY16_3Q2Yc0-37">
          <mxGeometry x="-0.7584" y="1" relative="1" as="geometry">
            <mxPoint as="offset" />
          </mxGeometry>
        </mxCell>
        <mxCell id="06RwZjaRszY16_3Q2Yc0-38" value="Stock" style="swimlane;childLayout=stackLayout;horizontal=1;startSize=50;horizontalStack=0;rounded=1;fontSize=14;fontStyle=0;strokeWidth=2;resizeParent=0;resizeLast=1;shadow=0;dashed=0;align=center;arcSize=4;whiteSpace=wrap;html=1;" parent="1" vertex="1">
          <mxGeometry x="1850" y="240" width="160" height="120" as="geometry" />
        </mxCell>
        <mxCell id="06RwZjaRszY16_3Q2Yc0-39" value="" style="edgeStyle=entityRelationEdgeStyle;fontSize=12;html=1;endArrow=ERmany;rounded=0;exitX=0;exitY=0.5;exitDx=0;exitDy=0;entryX=1;entryY=0.5;entryDx=0;entryDy=0;" parent="1" source="06RwZjaRszY16_3Q2Yc0-38" target="06RwZjaRszY16_3Q2Yc0-23" edge="1">
          <mxGeometry width="100" height="100" relative="1" as="geometry">
            <mxPoint x="1460" y="310" as="sourcePoint" />
            <mxPoint x="1600" y="320" as="targetPoint" />
          </mxGeometry>
        </mxCell>
        <mxCell id="06RwZjaRszY16_3Q2Yc0-40" value="1" style="edgeLabel;html=1;align=center;verticalAlign=middle;resizable=0;points=[];" parent="06RwZjaRszY16_3Q2Yc0-39" vertex="1" connectable="0">
          <mxGeometry x="-0.6221" y="1" relative="1" as="geometry">
            <mxPoint as="offset" />
          </mxGeometry>
        </mxCell>
        <mxCell id="06RwZjaRszY16_3Q2Yc0-42" value="N" style="edgeLabel;html=1;align=center;verticalAlign=middle;resizable=0;points=[];" parent="06RwZjaRszY16_3Q2Yc0-39" vertex="1" connectable="0">
          <mxGeometry x="0.7432" relative="1" as="geometry">
            <mxPoint as="offset" />
          </mxGeometry>
        </mxCell>
        <mxCell id="06RwZjaRszY16_3Q2Yc0-43" value="StockExchange" style="swimlane;childLayout=stackLayout;horizontal=1;startSize=50;horizontalStack=0;rounded=1;fontSize=14;fontStyle=0;strokeWidth=2;resizeParent=0;resizeLast=1;shadow=0;dashed=0;align=center;arcSize=4;whiteSpace=wrap;html=1;" parent="1" vertex="1">
          <mxGeometry x="2130" y="240" width="160" height="120" as="geometry" />
        </mxCell>
        <mxCell id="06RwZjaRszY16_3Q2Yc0-44" value="" style="edgeStyle=orthogonalEdgeStyle;fontSize=12;html=1;endArrow=ERmany;rounded=0;exitX=0;exitY=0.5;exitDx=0;exitDy=0;entryX=1;entryY=0.5;entryDx=0;entryDy=0;" parent="1" source="06RwZjaRszY16_3Q2Yc0-43" target="06RwZjaRszY16_3Q2Yc0-38" edge="1">
          <mxGeometry width="100" height="100" relative="1" as="geometry">
            <mxPoint x="2070" y="480" as="sourcePoint" />
            <mxPoint x="1950" y="480" as="targetPoint" />
          </mxGeometry>
        </mxCell>
        <mxCell id="06RwZjaRszY16_3Q2Yc0-45" value="1" style="edgeLabel;html=1;align=center;verticalAlign=middle;resizable=0;points=[];" parent="06RwZjaRszY16_3Q2Yc0-44" vertex="1" connectable="0">
          <mxGeometry x="-0.6221" y="1" relative="1" as="geometry">
            <mxPoint as="offset" />
          </mxGeometry>
        </mxCell>
        <mxCell id="06RwZjaRszY16_3Q2Yc0-46" value="N" style="edgeLabel;html=1;align=center;verticalAlign=middle;resizable=0;points=[];" parent="06RwZjaRszY16_3Q2Yc0-44" vertex="1" connectable="0">
          <mxGeometry x="0.7432" relative="1" as="geometry">
            <mxPoint as="offset" />
          </mxGeometry>
        </mxCell>
        <mxCell id="06RwZjaRszY16_3Q2Yc0-47" value="Holdings" style="swimlane;childLayout=stackLayout;horizontal=1;startSize=50;horizontalStack=0;rounded=1;fontSize=14;fontStyle=0;strokeWidth=2;resizeParent=0;resizeLast=1;shadow=0;dashed=0;align=center;arcSize=4;whiteSpace=wrap;html=1;" parent="1" vertex="1">
          <mxGeometry x="600" width="160" height="120" as="geometry" />
        </mxCell>
        <mxCell id="06RwZjaRszY16_3Q2Yc0-48" value="" style="edgeStyle=orthogonalEdgeStyle;fontSize=12;html=1;endArrow=ERmandOne;startArrow=ERmandOne;rounded=0;exitX=0.5;exitY=1;exitDx=0;exitDy=0;entryX=0.5;entryY=0;entryDx=0;entryDy=0;" parent="1" source="06RwZjaRszY16_3Q2Yc0-47" target="06RwZjaRszY16_3Q2Yc0-20" edge="1">
          <mxGeometry width="100" height="100" relative="1" as="geometry">
            <mxPoint x="870" y="-40" as="sourcePoint" />
            <mxPoint x="860" y="200" as="targetPoint" />
          </mxGeometry>
        </mxCell>
        <mxCell id="06RwZjaRszY16_3Q2Yc0-50" value="" style="edgeStyle=orthogonalEdgeStyle;fontSize=12;html=1;endArrow=ERmany;rounded=0;entryX=0.5;entryY=0;entryDx=0;entryDy=0;exitX=1;exitY=0.75;exitDx=0;exitDy=0;" parent="1" source="06RwZjaRszY16_3Q2Yc0-47" target="06RwZjaRszY16_3Q2Yc0-23" edge="1">
          <mxGeometry width="100" height="100" relative="1" as="geometry">
            <mxPoint x="1060" y="59.47000000000003" as="sourcePoint" />
            <mxPoint x="1180" y="59.47000000000003" as="targetPoint" />
          </mxGeometry>
        </mxCell>
        <mxCell id="06RwZjaRszY16_3Q2Yc0-51" value="1" style="edgeLabel;html=1;align=center;verticalAlign=middle;resizable=0;points=[];" parent="06RwZjaRszY16_3Q2Yc0-50" vertex="1" connectable="0">
          <mxGeometry x="-0.9584" y="1" relative="1" as="geometry">
            <mxPoint as="offset" />
          </mxGeometry>
        </mxCell>
        <mxCell id="06RwZjaRszY16_3Q2Yc0-53" value="N" style="edgeLabel;html=1;align=center;verticalAlign=middle;resizable=0;points=[];" parent="06RwZjaRszY16_3Q2Yc0-50" vertex="1" connectable="0">
          <mxGeometry x="0.9292" relative="1" as="geometry">
            <mxPoint as="offset" />
          </mxGeometry>
        </mxCell>
        <mxCell id="QdFJosM6-cuGJGQsEmsZ-19" style="edgeStyle=orthogonalEdgeStyle;rounded=0;orthogonalLoop=1;jettySize=auto;html=1;entryX=1;entryY=0.5;entryDx=0;entryDy=0;" edge="1" parent="1" source="QdFJosM6-cuGJGQsEmsZ-15" target="06RwZjaRszY16_3Q2Yc0-20">
          <mxGeometry relative="1" as="geometry" />
        </mxCell>
        <mxCell id="QdFJosM6-cuGJGQsEmsZ-20" value="1" style="edgeLabel;html=1;align=center;verticalAlign=middle;resizable=0;points=[];" vertex="1" connectable="0" parent="QdFJosM6-cuGJGQsEmsZ-19">
          <mxGeometry x="-0.6863" relative="1" as="geometry">
            <mxPoint as="offset" />
          </mxGeometry>
        </mxCell>
        <mxCell id="QdFJosM6-cuGJGQsEmsZ-21" value="1" style="edgeLabel;html=1;align=center;verticalAlign=middle;resizable=0;points=[];" vertex="1" connectable="0" parent="QdFJosM6-cuGJGQsEmsZ-19">
          <mxGeometry x="0.7242" relative="1" as="geometry">
            <mxPoint as="offset" />
          </mxGeometry>
        </mxCell>
        <mxCell id="QdFJosM6-cuGJGQsEmsZ-15" value="OrderList" style="swimlane;childLayout=stackLayout;horizontal=1;startSize=50;horizontalStack=0;rounded=1;fontSize=14;fontStyle=0;strokeWidth=2;resizeParent=0;resizeLast=1;shadow=0;dashed=0;align=center;arcSize=4;whiteSpace=wrap;html=1;" vertex="1" parent="1">
          <mxGeometry x="950" y="240" width="160" height="120" as="geometry" />
        </mxCell>
      </root>
    </mxGraphModel>
  </diagram>
</mxfile>
